<?xml version="1.0" encoding="UTF-8"?>
<svg id="Lager_1" data-name="Lager 1" xmlns="http://www.w3.org/2000/svg" xmlns:xlink="http://www.w3.org/1999/xlink" viewBox="0 0 973 203.06">
  <defs>
    <style>
      .cls-1 {
        clip-path: url(#clippath);
      }

      .cls-2 {
        fill: none;
      }

      .cls-2, .cls-3, .cls-4 {
        stroke-width: 0px;
      }

      .cls-5 {
        clip-path: url(#clippath-1);
      }

      .cls-6 {
        clip-path: url(#clippath-3);
      }

      .cls-7 {
        clip-path: url(#clippath-2);
      }

      .cls-3 {
        fill: #fff;
      }

      .cls-4 {
        fill: #ed1b34;
      }
    </style>
    <clipPath id="clippath">
      <rect class="cls-2" width="973" height="203.06"/>
    </clipPath>
    <clipPath id="clippath-1">
      <rect class="cls-2" y="0" width="973" height="203.06"/>
    </clipPath>
    <clipPath id="clippath-2">
      <rect class="cls-2" y="0" width="973" height="203.06"/>
    </clipPath>
    <clipPath id="clippath-3">
      <rect class="cls-2" y="0" width="973" height="203.06"/>
    </clipPath>
  </defs>
  <g id="S_logga_-_Liggande_Negativ" data-name="S logga - Liggande Negativ">
    <g class="cls-1">
      <g class="cls-5">
        <path class="cls-3" d="M229.22,120.48c2.9,4.43,7.93,6.48,12.79,6.48,5.37,0,12.02-3.41,12.02-10.07,0-13.89-29.76-5.29-29.76-28.82,0-7.08,5.97-16.88,20.46-16.88,6.57,0,12.88,1.36,17.39,6.91l-6.65,6.05c-2.05-3.15-6.05-5.29-10.74-5.29-9.04,0-11.77,5.46-11.77,9.21,0,15.26,29.76,6.14,29.76,27.89,0,11.68-9.38,18.67-20.98,18.67-7.76,0-15.17-2.64-19.27-8.36l6.74-5.8Z"/>
        <path class="cls-3" d="M290.36,91.65c12.02,0,21.49,9.46,21.49,21.23s-9.46,21.23-21.49,21.23-21.48-9.47-21.48-21.23,9.46-21.23,21.48-21.23M290.36,126.95c8.19,0,13.3-5.88,13.3-14.07s-5.12-14.07-13.3-14.07-13.3,5.88-13.3,14.07,5.12,14.07,13.3,14.07"/>
        <path class="cls-3" d="M348.82,103.42c-2.81-2.99-5.8-4.52-10.06-4.52-8.35,0-12.62,6.73-12.62,14.32s5.12,13.73,13.05,13.73c4.26,0,7.25-1.54,9.8-4.52l5.46,5.46c-4.01,4.44-9.47,6.22-15.35,6.22-12.45,0-21.14-8.61-21.14-21.06s8.52-21.32,21.14-21.32c5.88,0,11.51,2.05,15.52,6.4l-5.8,5.29Z"/>
        <path class="cls-3" d="M368.93,72.55c3.07,0,5.63,2.56,5.63,5.63s-2.56,5.63-5.63,5.63-5.63-2.56-5.63-5.63,2.56-5.63,5.63-5.63M365.1,92.68h7.67v40.42h-7.67v-40.42Z"/>
        <path class="cls-3" d="M385.59,97.62c4.26-4.01,10.4-5.97,16.03-5.97,11.93,0,16.88,6.48,16.88,13.47v20.63c0,2.82.09,5.2.34,7.33h-6.82c-.17-2.05-.26-4.09-.26-6.14h-.17c-3.41,5.2-8.02,7.16-14.15,7.16-7.5,0-13.98-4.26-13.98-12.11,0-10.41,9.97-13.98,22.25-13.98h5.63v-1.7c0-4.18-3.07-8.53-9.64-8.53-5.88,0-8.7,2.47-11.51,4.6l-4.6-4.78ZM407.25,113.65c-7.25,0-16.11,1.28-16.11,7.76,0,4.6,3.41,6.56,8.7,6.56,8.53,0,11.51-6.31,11.51-11.76v-2.56h-4.09Z"/>
        <rect class="cls-3" x="431.17" y="68.63" width="7.68" height="64.46"/>
        <path class="cls-3" d="M490.04,133.09h-7.67v-5.8h-.17c-2.98,4.35-8.61,6.82-14.07,6.82-12.53,0-20.55-9.3-20.55-21.23s8.1-21.23,20.55-21.23c5.8,0,11.34,2.64,14.07,6.82h.17v-29.84h7.67v64.46ZM482.37,112.89c0-8.19-5.12-14.07-13.3-14.07s-13.3,5.89-13.3,14.07,5.12,14.07,13.3,14.07,13.3-5.88,13.3-14.07"/>
        <path class="cls-3" d="M507.62,115.7c0,7.08,6.57,11.77,13.64,11.77,4.69,0,8.1-2.39,11.08-6.05l5.8,4.43c-4.26,5.54-10.15,8.27-17.91,8.27-12.79,0-20.8-9.21-20.8-21.23s8.78-21.23,20.89-21.23c14.24,0,19.7,10.91,19.7,21.32v2.73h-32.4ZM531.84,109.56c-.17-6.74-3.92-11.77-11.68-11.77s-12.53,6.4-12.53,11.77h24.22Z"/>
        <path class="cls-3" d="M548.57,92.67h7.16v6.31h.17c.77-2.39,5.72-7.33,12.96-7.33,5.97,0,10.07,2.56,12.63,7.51,2.64-4.95,7.93-7.51,12.78-7.51,12.45,0,15.35,8.87,15.35,17.91v23.53h-7.67v-22.51c0-6.14-1.28-11.77-8.7-11.77s-10.31,5.03-10.31,12.2v22.08h-7.68v-21.15c0-7.68-1.1-13.13-8.52-13.13-5.54,0-10.49,4.18-10.49,13.3v20.98h-7.67v-40.42Z"/>
        <path class="cls-3" d="M638.82,91.65c12.02,0,21.49,9.46,21.49,21.23s-9.46,21.23-21.49,21.23-21.48-9.47-21.48-21.23,9.46-21.23,21.48-21.23M638.82,126.95c8.19,0,13.3-5.88,13.3-14.07s-5.11-14.07-13.3-14.07-13.3,5.88-13.3,14.07,5.12,14.07,13.3,14.07"/>
        <polygon class="cls-3" points="668.01 68.63 675.68 68.63 675.68 110.24 693.07 92.76 703.73 92.76 684.89 111.09 705.35 133.09 694.43 133.09 675.68 112.11 675.68 133.09 668.01 133.09 668.01 68.63"/>
        <path class="cls-3" d="M712.56,92.67h7.67v6.23h.17c1.96-4.27,7.08-7.25,12.11-7.25,1.19,0,2.39.17,3.41.51l-.34,8.27c-1.28-.34-2.56-.59-3.75-.59-7.5,0-11.6,4.09-11.6,12.96v20.3h-7.67v-40.42Z"/>
        <path class="cls-3" d="M742.46,97.62c4.26-4.01,10.4-5.97,16.03-5.97,11.93,0,16.88,6.48,16.88,13.47v20.63c0,2.82.08,5.2.34,7.33h-6.81c-.17-2.05-.26-4.09-.26-6.14h-.17c-3.41,5.2-8.02,7.16-14.16,7.16-7.5,0-13.98-4.26-13.98-12.11,0-10.41,9.97-13.98,22.25-13.98h5.63v-1.7c0-4.18-3.07-8.53-9.64-8.53-5.88,0-8.69,2.47-11.51,4.6l-4.61-4.78ZM764.13,113.65c-7.25,0-16.12,1.28-16.12,7.76,0,4.6,3.41,6.56,8.69,6.56,8.53,0,11.52-6.31,11.52-11.76v-2.56h-4.09Z"/>
        <path class="cls-3" d="M808.27,99.33h-11v18.33c0,4.52,0,9.3,5.8,9.3,1.79,0,3.92-.26,5.46-1.19v6.99c-1.79,1.03-5.37,1.37-6.91,1.37-11.85,0-12.02-7.25-12.02-13.73v-21.06h-8.86v-6.65h8.86v-11.34h7.67v11.34h11v6.65Z"/>
        <path class="cls-3" d="M822.45,115.7c0,7.08,6.57,11.77,13.64,11.77,4.69,0,8.1-2.39,11.08-6.05l5.8,4.43c-4.26,5.54-10.15,8.27-17.91,8.27-12.79,0-20.81-9.21-20.81-21.23s8.79-21.23,20.9-21.23c14.24,0,19.7,10.91,19.7,21.32v2.73h-32.4ZM846.66,109.56c-.17-6.74-3.92-11.77-11.68-11.77s-12.53,6.4-12.53,11.77h24.21Z"/>
        <path class="cls-3" d="M863.81,92.67h7.67v6.23h.18c1.96-4.27,7.08-7.25,12.1-7.25,1.19,0,2.39.17,3.41.51l-.34,8.27c-1.28-.34-2.56-.59-3.75-.59-7.5,0-11.6,4.09-11.6,12.96v20.3h-7.67v-40.42Z"/>
        <path class="cls-3" d="M894.7,92.67h7.67v6.23h.17c1.96-4.27,7.08-7.25,13.3-7.25,7.85,0,14.67,4.69,14.67,15.43v26.01h-7.67v-23.88c0-7.59-4.35-10.4-9.21-10.4-6.39,0-11.26,4.1-11.26,13.47v20.81h-7.67v-40.42Z"/>
      </g>
      <g class="cls-7">
        <path class="cls-3" d="M939.75,97.62c4.26-4.01,10.4-5.97,16.03-5.97,11.93,0,16.88,6.48,16.88,13.47v20.63c0,2.82.08,5.2.34,7.33h-6.82c-.17-2.05-.25-4.09-.25-6.14h-.17c-3.41,5.2-8.02,7.16-14.15,7.16-7.5,0-13.98-4.26-13.98-12.11,0-10.41,9.97-13.98,22.25-13.98h5.63v-1.7c0-4.18-3.07-8.53-9.64-8.53-5.89,0-8.69,2.47-11.51,4.6l-4.61-4.78ZM961.41,113.65c-7.25,0-16.11,1.28-16.11,7.76,0,4.6,3.41,6.56,8.69,6.56,8.53,0,11.52-6.31,11.52-11.76v-2.56h-4.09Z"/>
        <path class="cls-3" d="M195.74,97.01c-1.68-21.16-7.99-39-13.69-49.92-3.89-7.48-7.5-13.31-10.92-16.79-1.22-1.3-3.73-3.63-6.27-3.89-2.58-.26-5.94.3-12.96,2.62-5.27,1.74-9.21,3.17-10.72,3.73-.75-1.02-2.24-3.03-3.39-4.54-3.87-5.08-8.56-11.32-14.15-15.73-3.91-3.09-7.44-5.51-12.58-7.57-3.31-1.43-6.61-2.45-9.6-3.08C95.99.68,91.18.13,89.93,0c-.12.88-.49,3.58-.96,6.92-.6,4.27-1.36,10.57-1.4,10.92-4.76-1.07-11.26-1.26-16.56-.22-9.39,1.83-17.35,5.42-23.64,8.56-7.81,3.9-13.89,8.2-17.3,10.84-6.36,4.84-10.47,9.41-12.85,13.13-1.47,2.3-2.29,4.36-2.73,5.85-.33,1.11-.45,1.88-.49,2.2l10.65,8.29c-1.41-.05-3.12.27-4.41.7-3.59,1.23-4.62,1.83-6.03,2.65-2.59,1.5-4.58,3.11-6.57,5.01C4.4,78.19-.01,85.43,0,91.72c0,.93.09,1.86.28,2.77,1.2,5.7,4.46,10.01,7.09,14.21,1.7,2.72,5.31,7.53,8.48,11.65,3,3.88,5.86,7.15,6.15,7.51l-12.15,6.71.21.86h0c.15.73.44,2,.88,3.66.71,2.68,1.83,6.36,3.43,10.33,4.18,10.39,15.4,29.97,21.27,34.73,10.27,8.35,30.81,18.93,57.56,18.93.2,0,.4,0,.6,0,12.12-.06,24.92-6.27,32.53-14.36,3.35-3.56,6.1-7.63,8.02-10.81,1.92-3.19,2.98-5.46,2.99-5.46l.06-.12.13-.05s.07-.02.11-.02c.45,0,21.81-.09,37.37-14.24,3.97-3.62,21.06-17.89,21.08-52.22,0-2.79-.11-5.71-.36-8.77"/>
        <path class="cls-4" d="M97.42,9.69c-2.3,11.01-2.48,32.91-4.73,44.68,14.93-6.88,24.07-12.48,39.39-18.13-9.42-12.64-18.45-24.16-34.65-26.55"/>
        <path class="cls-4" d="M67.81,155.45c-9.48-2.27-13.94-6.82-18.61-11.55-1.22-1.23,3.94-5.67,5.85-4.69,6.61,3.38,13.09,7.29,16.35,7.69,42.37,5.22,54.83-11.76,58.84-21.55-20.25-26.09-39.28-18.71-39.28-18.71-.84,7.05-2.85,13.43-2.86,20.76.05.74-20.87,3.19-21.5,2.32-3.89-3.62-8.43-8.58-11.93-12.47-10.68,9.26-22.35,14.34-34.65,21.73,2.71,11.68,15.89,36.18,23.7,40.81,44.93,26.65,91.07,20.56,90.08-42.11-12.3,24.13-52.95,20.88-65.98,17.78"/>
      </g>
      <g class="cls-6">
        <path class="cls-4" d="M149.75,70.09c-5.88,1.58-14.51-10.57-9.82-15.86,6.21-7.01,22.75,12.4,9.82,15.86M163.76,36.89c-2.77-2.08-54.42,21.63-71.48,26.45-1.59,11.25-2.39,23.12-2.63,34.26,14.71-3.51,29.58,2.1,44.54,16.76,2.49-6.5,2.49-19.5,2.19-26.89-.09-2.51,5.6-3.57,6.07-2.97,6.62,8.42,1.88,30.23-1.26,41.13,1.05,15.99,1.23,24.41-1.97,38.78,78.86-12.41,40.62-115.44,24.53-127.51"/>
        <path class="cls-4" d="M50.99,108.79c-3.97-6-5.96-14.6-6.87-22.19-6.92-3.7-17.5-15.16-24.4-10.62-15.46,10.17-12.1,18.89-11.22,20.31,8.07,13.01,11.97,18.59,19,25.69,7.3-3.16,15.44-8.56,23.48-13.2"/>
        <path class="cls-4" d="M67.24,102.44c-8.35-3.58-8.85-21.8-1.68-19.49,10.93,3.52,13.48,24.57,1.68,19.49M54.43,80.19c-9.28,13.17,16.15,41.2,16.15,41.2l9.53-.87c-.76-20.87,3.98-38.46-.14-42.3-3.68-3.37-17.79-9.02-25.54,1.97"/>
        <path class="cls-4" d="M82,73.16c-.36-.64,3.72-32.67,3.91-46.92-20.49-4.77-58.16,18.79-61.94,29.23,8.68,7.41,16.96,13.63,25.47,20.88,6.2-17.51,28.54-10.77,32.55-3.2"/>
      </g>
    </g>
  </g>
</svg>