<svg viewBox="0 0 692 716.56" xmlns="http://www.w3.org/2000/svg" xmlns:xlink="http://www.w3.org/1999/xlink"><clipPath id="a"><path d="m0 0h692v716.56h-692z"/></clipPath><clipPath id="b"><path d="m0 0h692v716.56h-692z"/></clipPath><g clip-path="url(#a)"><g clip-path="url(#b)"><path d="m690.74 342.32c-5.92-74.67-28.2-137.61-48.31-176.16-13.72-26.39-26.45-46.98-38.54-59.24-4.29-4.58-13.17-12.82-22.1-13.74-9.1-.93-20.98 1.05-45.74 9.23-18.61 6.15-32.49 11.18-37.83 13.15-2.64-3.59-7.9-10.69-11.96-16.01-13.67-17.93-30.18-39.93-49.92-55.51-13.81-10.91-26.26-19.43-44.4-26.7-11.66-5.05-23.31-8.66-33.86-10.87-19.33-4.05-36.32-6.01-40.74-6.47-.42 3.11-1.73 12.62-3.37 24.44-2.11 15.08-4.81 37.3-4.96 38.52-16.81-3.79-39.72-4.43-58.43-.79-33.13 6.46-61.22 19.14-83.41 30.21-27.56 13.77-49 28.92-61.07 38.23-22.44 17.1-36.93 33.2-45.34 46.32-5.2 8.12-8.07 15.4-9.64 20.65-1.16 3.91-1.6 6.63-1.75 7.77l37.59 29.24c-4.98-.16-11.02.94-15.55 2.49-12.66 4.33-16.31 6.45-21.3 9.34-9.12 5.27-16.15 10.99-23.18 17.68-11.41 11.8-26.97 37.38-26.93 59.56 0 3.3.32 6.58.98 9.77 4.24 20.13 15.75 35.32 25.01 50.14 6.01 9.6 18.74 26.58 29.93 41.11 10.58 13.7 20.68 25.23 21.7 26.49l-42.89 23.66.74 3.02h.01c.55 2.57 1.55 7.05 3.11 12.92 2.52 9.47 6.46 22.45 12.11 36.44 14.75 36.65 54.33 105.75 75.07 122.55 36.26 29.48 108.73 66.8 203.14 66.8.7 0 1.41 0 2.12-.03 42.77-.21 87.95-22.13 114.79-50.66 11.81-12.55 21.54-26.93 28.3-38.15 6.76-11.24 10.53-19.25 10.54-19.27l.21-.43.47-.17c.15-.06.26-.06.37-.06 1.6.01 76.98-.32 131.88-50.25 14.01-12.8 74.32-63.14 74.38-184.29 0-9.83-.39-20.14-1.26-30.93" fill="#fff"/><g fill="#ed1b34"><path d="m343.77 34.2c-8.11 38.86-8.77 116.15-16.71 157.67 52.7-24.26 84.95-44.04 139-63.99-33.23-44.61-65.1-85.24-122.29-93.68"/><path d="m239.29 548.56c-33.45-8.01-49.19-24.06-65.68-40.75-4.28-4.34 13.91-20 20.66-16.56 23.32 11.93 46.18 25.72 57.7 27.14 149.5 18.41 193.49-41.5 207.62-76.05-71.47-92.06-138.62-66.04-138.62-66.04-2.96 24.9-10.08 47.41-10.09 73.25.17 2.63-73.66 11.27-75.86 8.2-13.73-12.77-29.74-30.27-42.11-44.01-37.67 32.7-78.87 50.61-122.28 76.68 9.58 41.21 56.06 127.66 83.64 144 158.56 94.04 321.37 72.55 317.87-148.6-43.39 85.14-186.85 73.67-232.85 62.74"/><path d="m528.45 247.34c-20.75 5.58-51.2-37.28-34.64-55.96 21.92-24.73 80.28 43.75 34.64 55.96m49.44-117.18c-9.76-7.34-192.05 76.32-252.24 93.33-5.62 39.68-8.42 81.61-9.28 120.89 51.89-12.39 104.38 7.41 157.18 59.14 8.77-22.94 8.77-68.8 7.73-94.87-.31-8.87 19.78-12.59 21.41-10.47 23.36 29.71 6.65 106.67-4.43 145.13 3.72 56.44 4.34 86.13-6.94 136.83 278.28-43.78 143.34-407.37 86.57-449.97"/><path d="m179.94 383.89c-14.01-21.17-21.03-51.5-24.23-78.3-24.41-13.05-61.76-53.5-86.12-37.46-54.57 35.9-42.7 66.67-39.58 71.69 28.47 45.91 42.23 65.59 67.06 90.66 25.76-11.13 54.49-30.2 82.87-46.59"/><path d="m237.28 361.51c-29.45-12.62-31.24-76.94-5.93-68.79 38.56 12.41 47.57 86.69 5.93 68.79m-45.19-78.54c-32.74 46.46 56.99 145.39 56.99 145.39l33.62-3.08c-2.68-73.64 14.05-135.73-.48-149.28-12.98-11.88-62.79-31.83-90.13 6.97"/><path d="m289.35 258.16c-1.29-2.26 13.11-115.27 13.81-165.56-72.29-16.82-205.24 66.3-218.57 103.15 30.63 26.17 59.85 48.08 89.89 73.7 21.87-61.8 100.71-38.02 114.88-11.29"/></g></g></g></svg>