<?xml version="1.0" encoding="UTF-8"?>
<svg id="Lager_1" data-name="Lager 1" xmlns="http://www.w3.org/2000/svg" xmlns:xlink="http://www.w3.org/1999/xlink" viewBox="0 0 538.78 474">
  <defs>
    <style>
      .cls-1 {
        clip-path: url(#clippath);
      }

      .cls-2 {
        fill: none;
      }

      .cls-2, .cls-3, .cls-4 {
        stroke-width: 0px;
      }

      .cls-5 {
        clip-path: url(#clippath-1);
      }

      .cls-3 {
        fill: #fff;
      }

      .cls-4 {
        fill: #ed1b34;
      }
    </style>
    <clipPath id="clippath">
      <rect class="cls-2" width="538.78" height="474"/>
    </clipPath>
    <clipPath id="clippath-1">
      <rect class="cls-2" y="0" width="538.78" height="474"/>
    </clipPath>
  </defs>
  <g id="S_logga_-_Stående_Negativ" data-name="S logga - Stående Negativ">
    <g class="cls-1">
      <g class="cls-5">
        <path class="cls-3" d="M4.84,463.84c2.08,3.18,5.69,4.65,9.18,4.65,3.86,0,8.63-2.45,8.63-7.22,0-9.98-21.36-3.79-21.36-20.69,0-5.08,4.29-12.12,14.69-12.12,4.71,0,9.24.98,12.49,4.96l-4.77,4.35c-1.47-2.26-4.35-3.79-7.71-3.79-6.49,0-8.45,3.92-8.45,6.61,0,10.95,21.36,4.41,21.36,20.02,0,8.39-6.73,13.4-15.06,13.4-5.57,0-10.89-1.9-13.83-6l4.84-4.16Z"/>
        <path class="cls-3" d="M48.73,443.15c8.63,0,15.43,6.79,15.43,15.24s-6.79,15.24-15.43,15.24-15.42-6.8-15.42-15.24,6.79-15.24,15.42-15.24M48.73,468.49c5.88,0,9.55-4.22,9.55-10.1s-3.67-10.1-9.55-10.1-9.55,4.22-9.55,10.1,3.67,10.1,9.55,10.1"/>
        <path class="cls-3" d="M90.69,451.6c-2.02-2.14-4.16-3.24-7.22-3.24-6,0-9.06,4.84-9.06,10.28s3.67,9.85,9.37,9.85c3.06,0,5.2-1.1,7.04-3.24l3.92,3.92c-2.88,3.18-6.79,4.47-11.02,4.47-8.94,0-15.18-6.18-15.18-15.12s6.12-15.3,15.18-15.3c4.22,0,8.26,1.47,11.14,4.59l-4.16,3.8Z"/>
        <path class="cls-3" d="M105.13,429.44c2.2,0,4.04,1.84,4.04,4.04s-1.84,4.04-4.04,4.04-4.04-1.84-4.04-4.04,1.84-4.04,4.04-4.04M102.38,443.88h5.51v29.02h-5.51v-29.02Z"/>
        <path class="cls-3" d="M117.09,447.43c3.06-2.88,7.47-4.28,11.51-4.28,8.57,0,12.12,4.65,12.12,9.67v14.81c0,2.02.06,3.73.24,5.26h-4.9c-.12-1.47-.18-2.94-.18-4.41h-.12c-2.45,3.73-5.75,5.14-10.16,5.14-5.39,0-10.04-3.06-10.04-8.69,0-7.47,7.16-10.04,15.98-10.04h4.04v-1.22c0-3-2.2-6.12-6.92-6.12-4.22,0-6.24,1.77-8.26,3.3l-3.31-3.43ZM132.64,458.94c-5.2,0-11.57.92-11.57,5.57,0,3.3,2.45,4.71,6.25,4.71,6.12,0,8.26-4.53,8.26-8.45v-1.84h-2.94Z"/>
        <rect class="cls-3" x="149.81" y="426.62" width="5.51" height="46.28"/>
        <path class="cls-3" d="M192.08,472.9h-5.51v-4.17h-.12c-2.14,3.12-6.18,4.9-10.1,4.9-9,0-14.75-6.67-14.75-15.24s5.81-15.24,14.75-15.24c4.16,0,8.14,1.9,10.1,4.9h.12v-21.42h5.51v46.28ZM186.57,458.39c0-5.88-3.67-10.1-9.55-10.1s-9.55,4.22-9.55,10.1,3.67,10.1,9.55,10.1,9.55-4.22,9.55-10.1"/>
        <path class="cls-3" d="M204.69,460.41c0,5.08,4.71,8.45,9.79,8.45,3.37,0,5.82-1.71,7.96-4.34l4.16,3.18c-3.06,3.98-7.28,5.94-12.86,5.94-9.18,0-14.93-6.61-14.93-15.24s6.31-15.24,15-15.24c10.22,0,14.14,7.83,14.14,15.3v1.96h-23.26ZM222.08,456.01c-.12-4.84-2.81-8.45-8.39-8.45s-9,4.59-9,8.45h17.39Z"/>
        <path class="cls-3" d="M234.09,443.88h5.14v4.53h.12c.55-1.71,4.1-5.26,9.3-5.26,4.29,0,7.23,1.84,9.06,5.39,1.9-3.55,5.69-5.39,9.18-5.39,8.94,0,11.02,6.36,11.02,12.86v16.89h-5.51v-16.16c0-4.41-.92-8.45-6.24-8.45s-7.41,3.61-7.41,8.75v15.86h-5.51v-15.18c0-5.51-.79-9.43-6.12-9.43-3.98,0-7.53,3-7.53,9.55v15.06h-5.51v-29.02Z"/>
        <path class="cls-3" d="M298.88,443.15c8.63,0,15.43,6.79,15.43,15.24s-6.79,15.24-15.43,15.24-15.42-6.8-15.42-15.24,6.8-15.24,15.42-15.24M298.88,468.49c5.88,0,9.55-4.22,9.55-10.1s-3.67-10.1-9.55-10.1-9.55,4.22-9.55,10.1,3.67,10.1,9.55,10.1"/>
        <polygon class="cls-3" points="319.83 426.62 325.34 426.62 325.34 456.49 337.82 443.95 345.47 443.95 331.95 457.11 346.64 472.9 338.8 472.9 325.34 457.84 325.34 472.9 319.83 472.9 319.83 426.62"/>
        <path class="cls-3" d="M351.82,443.88h5.51v4.47h.12c1.41-3.06,5.08-5.2,8.69-5.2.86,0,1.71.12,2.45.37l-.25,5.94c-.92-.25-1.84-.43-2.69-.43-5.38,0-8.33,2.94-8.33,9.3v14.57h-5.51v-29.02Z"/>
        <path class="cls-3" d="M373.28,447.43c3.06-2.88,7.47-4.28,11.51-4.28,8.57,0,12.12,4.65,12.12,9.67v14.81c0,2.02.06,3.73.24,5.26h-4.89c-.12-1.47-.18-2.94-.18-4.41h-.12c-2.45,3.73-5.76,5.14-10.16,5.14-5.38,0-10.04-3.06-10.04-8.69,0-7.47,7.16-10.04,15.98-10.04h4.04v-1.22c0-3-2.2-6.12-6.92-6.12-4.22,0-6.24,1.77-8.26,3.3l-3.31-3.43ZM388.84,458.94c-5.21,0-11.57.92-11.57,5.57,0,3.3,2.45,4.71,6.24,4.71,6.12,0,8.26-4.53,8.26-8.45v-1.84h-2.93Z"/>
        <path class="cls-3" d="M420.53,448.66h-7.9v13.16c0,3.24,0,6.67,4.17,6.67,1.28,0,2.81-.18,3.92-.86v5.02c-1.29.74-3.86.98-4.96.98-8.51,0-8.63-5.2-8.63-9.86v-15.12h-6.36v-4.77h6.36v-8.14h5.51v8.14h7.9v4.77Z"/>
        <path class="cls-3" d="M430.7,460.41c0,5.08,4.71,8.45,9.79,8.45,3.37,0,5.82-1.71,7.96-4.34l4.17,3.18c-3.06,3.98-7.29,5.94-12.86,5.94-9.18,0-14.94-6.61-14.94-15.24s6.31-15.24,15-15.24c10.22,0,14.14,7.83,14.14,15.3v1.96h-23.26ZM448.09,456.01c-.12-4.84-2.81-8.45-8.38-8.45s-9,4.59-9,8.45h17.38Z"/>
        <path class="cls-3" d="M460.4,443.88h5.51v4.47h.13c1.4-3.06,5.08-5.2,8.69-5.2.86,0,1.71.12,2.45.37l-.25,5.94c-.92-.25-1.84-.43-2.69-.43-5.38,0-8.33,2.94-8.33,9.3v14.57h-5.51v-29.02Z"/>
        <path class="cls-3" d="M482.57,443.88h5.51v4.47h.12c1.41-3.06,5.08-5.2,9.55-5.2,5.63,0,10.53,3.37,10.53,11.08v18.67h-5.51v-17.14c0-5.45-3.12-7.47-6.61-7.47-4.59,0-8.08,2.94-8.08,9.67v14.94h-5.51v-29.02Z"/>
        <path class="cls-3" d="M514.91,447.43c3.06-2.88,7.47-4.28,11.51-4.28,8.57,0,12.12,4.65,12.12,9.67v14.81c0,2.02.06,3.73.24,5.26h-4.89c-.12-1.47-.18-2.94-.18-4.41h-.12c-2.45,3.73-5.75,5.14-10.16,5.14-5.39,0-10.04-3.06-10.04-8.69,0-7.47,7.16-10.04,15.98-10.04h4.04v-1.22c0-3-2.2-6.12-6.92-6.12-4.22,0-6.24,1.77-8.26,3.3l-3.31-3.43ZM530.46,458.94c-5.2,0-11.57.92-11.57,5.57,0,3.3,2.45,4.71,6.24,4.71,6.12,0,8.27-4.53,8.27-8.45v-1.84h-2.94Z"/>
        <path class="cls-3" d="M451.86,189.72c-3.28-41.38-15.63-76.27-26.78-97.63-7.6-14.63-14.66-26.04-21.36-32.83-2.38-2.54-7.3-7.11-12.25-7.61-5.04-.51-11.63.58-25.35,5.12-10.31,3.41-18,6.2-20.97,7.29-1.47-1.99-4.38-5.93-6.63-8.87-7.58-9.94-16.73-22.13-27.67-30.77-7.65-6.05-14.55-10.77-24.61-14.8-6.46-2.8-12.92-4.8-18.77-6.02C256.78,1.34,247.36.25,244.91,0c-.23,1.72-.96,7-1.87,13.54-1.17,8.36-2.67,20.67-2.75,21.35-9.32-2.1-22.01-2.45-32.38-.44-18.36,3.58-33.93,10.61-46.23,16.74-15.27,7.63-27.16,16.03-33.84,21.19-12.44,9.48-20.47,18.4-25.13,25.67-2.88,4.5-4.47,8.54-5.34,11.44-.64,2.16-.89,3.68-.97,4.31l20.83,16.21c-2.76-.09-6.11.52-8.62,1.38-7.02,2.4-9.04,3.58-11.8,5.18-5.06,2.92-8.95,6.09-12.85,9.8-6.33,6.54-14.96,20.72-14.94,33.01,0,1.83.18,3.65.55,5.42,2.35,11.16,8.73,19.57,13.86,27.79,3.33,5.32,10.38,14.73,16.59,22.78,5.87,7.59,11.46,13.98,12.03,14.68l-23.77,13.11.41,1.67h0c.3,1.43.86,3.91,1.73,7.16,1.4,5.25,3.58,12.44,6.71,20.2,8.18,20.31,30.11,58.61,41.61,67.92,20.1,16.34,60.26,37.02,112.59,37.02.39,0,.78,0,1.18-.02,23.71-.12,48.75-12.26,63.62-28.08,6.55-6.96,11.94-14.92,15.69-21.14,3.75-6.23,5.83-10.67,5.84-10.68l.11-.24.26-.09c.08-.03.14-.03.21-.03.89,0,42.66-.18,73.09-27.85,7.77-7.09,41.19-34.99,41.22-102.14,0-5.45-.22-11.16-.7-17.14"/>
        <path class="cls-4" d="M259.57,18.95c-4.49,21.54-4.86,64.38-9.26,87.38,29.21-13.45,47.08-24.41,77.03-35.47-18.42-24.72-36.08-47.24-67.77-51.92"/>
        <path class="cls-4" d="M201.66,304.03c-18.54-4.44-27.26-13.33-36.4-22.58-2.37-2.41,7.71-11.08,11.45-9.18,12.92,6.61,25.59,14.25,31.98,15.04,82.86,10.2,107.23-23,115.07-42.15-39.61-51.02-76.83-36.6-76.83-36.6-1.64,13.8-5.58,26.28-5.59,40.6.09,1.46-40.83,6.25-42.05,4.54-7.61-7.08-16.48-16.78-23.34-24.39-20.88,18.12-43.71,28.05-67.77,42.5,5.31,22.84,31.07,70.75,46.36,79.81,87.88,52.12,178.11,40.21,176.17-82.36-24.05,47.19-103.56,40.83-129.05,34.77"/>
        <path class="cls-4" d="M361.92,137.08c-11.5,3.09-28.38-20.66-19.2-31.02,12.15-13.71,44.5,24.24,19.2,31.02M389.32,72.14c-5.41-4.07-106.44,42.3-139.8,51.72-3.11,21.99-4.67,45.23-5.14,67,28.76-6.87,57.85,4.11,87.11,32.78,4.86-12.71,4.86-38.13,4.28-52.58-.17-4.91,10.96-6.98,11.86-5.8,12.95,16.47,3.69,59.12-2.45,80.44,2.06,31.28,2.41,47.73-3.85,75.84,154.23-24.27,79.44-225.78,47.98-249.39"/>
        <path class="cls-4" d="M168.77,212.76c-7.76-11.73-11.66-28.55-13.43-43.4-13.53-7.23-34.23-29.65-47.73-20.76-30.24,19.9-23.67,36.95-21.94,39.73,15.78,25.45,23.41,36.35,37.17,50.25,14.27-6.17,30.2-16.74,45.93-25.82"/>
        <path class="cls-4" d="M200.55,200.36c-16.32-7-17.32-42.64-3.29-38.12,21.37,6.88,26.36,48.05,3.29,38.12M175.5,156.83c-18.15,25.75,31.59,80.58,31.59,80.58l18.63-1.71c-1.49-40.81,7.78-75.23-.27-82.73-7.19-6.59-34.8-17.64-49.95,3.86"/>
        <path class="cls-4" d="M229.4,143.08c-.71-1.25,7.26-63.89,7.65-91.76-40.07-9.32-113.75,36.75-121.14,57.17,16.98,14.5,33.17,26.65,49.82,40.85,12.12-34.25,55.82-21.07,63.67-6.26"/>
      </g>
    </g>
  </g>
</svg>