<?xml version="1.0" encoding="UTF-8"?>
<svg id="Lager_1" data-name="Lager 1" xmlns="http://www.w3.org/2000/svg" xmlns:xlink="http://www.w3.org/1999/xlink" viewBox="0 0 1092 209.29">
  <defs>
    <style>
      .cls-1 {
        clip-path: url(#clippath);
      }

      .cls-2 {
        fill: none;
      }

      .cls-2, .cls-3 {
        stroke-width: 0px;
      }

      .cls-4 {
        clip-path: url(#clippath-1);
      }

      .cls-5 {
        clip-path: url(#clippath-3);
      }

      .cls-6 {
        clip-path: url(#clippath-2);
      }

      .cls-3 {
        fill: #ed1b34;
      }
    </style>
    <clipPath id="clippath">
      <rect class="cls-2" width="1092" height="209.29"/>
    </clipPath>
    <clipPath id="clippath-1">
      <rect class="cls-2" y="0" width="1092" height="209.29"/>
    </clipPath>
    <clipPath id="clippath-2">
      <rect class="cls-2" y="0" width="1092" height="209.29"/>
    </clipPath>
    <clipPath id="clippath-3">
      <rect class="cls-2" y="0" width="1092" height="209.29"/>
    </clipPath>
  </defs>
  <g id="S_logga_-_Liggande_Positiv" data-name="S logga - Liggande Positiv">
    <g class="cls-1">
      <g class="cls-4">
        <path class="cls-3" d="M250.71,125.31c3.28,5.01,8.97,7.33,14.47,7.33,6.08,0,13.6-3.86,13.6-11.38,0-15.72-33.66-5.98-33.66-32.6,0-8,6.75-19.09,23.15-19.09,7.42,0,14.56,1.54,19.67,7.81l-7.52,6.85c-2.31-3.57-6.84-5.98-12.15-5.98-10.22,0-13.31,6.17-13.31,10.41,0,17.26,33.66,6.95,33.66,31.54,0,13.21-10.61,21.12-23.73,21.12-8.77,0-17.17-2.99-21.8-9.45l7.62-6.56Z"/>
        <path class="cls-3" d="M319.86,92.71c13.6,0,24.3,10.71,24.3,24.02s-10.7,24.01-24.3,24.01-24.3-10.71-24.3-24.01,10.7-24.02,24.3-24.02M319.86,132.64c9.26,0,15.05-6.65,15.05-15.91s-5.79-15.92-15.05-15.92-15.04,6.65-15.04,15.92,5.79,15.91,15.04,15.91"/>
        <path class="cls-3" d="M385.98,106.02c-3.18-3.38-6.56-5.11-11.38-5.11-9.45,0-14.27,7.62-14.27,16.2s5.79,15.53,14.76,15.53c4.82,0,8.2-1.74,11.09-5.11l6.17,6.17c-4.54,5.02-10.71,7.04-17.36,7.04-14.08,0-23.92-9.74-23.92-23.82s9.65-24.11,23.92-24.11c6.65,0,13.02,2.32,17.55,7.23l-6.56,5.99Z"/>
        <path class="cls-3" d="M408.73,71.1c3.47,0,6.37,2.89,6.37,6.37s-2.89,6.37-6.37,6.37-6.37-2.9-6.37-6.37,2.9-6.37,6.37-6.37M404.39,93.86h8.68v45.72h-8.68v-45.72Z"/>
        <path class="cls-3" d="M427.58,99.46c4.82-4.53,11.76-6.75,18.13-6.75,13.5,0,19.1,7.33,19.1,15.24v23.34c0,3.19.1,5.88.38,8.29h-7.71c-.19-2.32-.29-4.63-.29-6.94h-.19c-3.86,5.88-9.07,8.1-16.01,8.1-8.49,0-15.82-4.82-15.82-13.69,0-11.77,11.28-15.82,25.17-15.82h6.37v-1.93c0-4.73-3.47-9.65-10.9-9.65-6.65,0-9.84,2.79-13.02,5.21l-5.21-5.4ZM452.07,117.59c-8.2,0-18.23,1.44-18.23,8.78,0,5.2,3.86,7.42,9.84,7.42,9.64,0,13.02-7.13,13.02-13.31v-2.89h-4.63Z"/>
        <rect class="cls-3" x="479.13" y="66.67" width="8.68" height="72.91"/>
        <path class="cls-3" d="M545.72,139.58h-8.68v-6.56h-.2c-3.37,4.92-9.74,7.72-15.91,7.72-14.18,0-23.24-10.51-23.24-24.01s9.16-24.02,23.24-24.02c6.56,0,12.83,2.99,15.91,7.72h.2v-33.76h8.68v72.91ZM537.04,116.72c0-9.26-5.79-15.92-15.05-15.92s-15.04,6.66-15.04,15.92,5.78,15.91,15.04,15.91,15.05-6.65,15.05-15.91"/>
        <path class="cls-3" d="M565.6,119.9c0,8.01,7.43,13.31,15.43,13.31,5.3,0,9.17-2.7,12.54-6.84l6.56,5.01c-4.82,6.27-11.48,9.36-20.26,9.36-14.46,0-23.53-10.42-23.53-24.01s9.93-24.02,23.63-24.02c16.11,0,22.28,12.35,22.28,24.11v3.09h-36.65ZM593,112.96c-.19-7.62-4.44-13.31-13.21-13.31s-14.18,7.23-14.18,13.31h27.39Z"/>
        <path class="cls-3" d="M611.92,93.86h8.1v7.14h.19c.87-2.7,6.46-8.29,14.66-8.29,6.76,0,11.38,2.9,14.28,8.49,2.99-5.59,8.96-8.49,14.46-8.49,14.08,0,17.36,10.03,17.36,20.26v26.62h-8.68v-25.46c0-6.94-1.45-13.31-9.84-13.31s-11.66,5.69-11.66,13.79v24.98h-8.69v-23.92c0-8.68-1.25-14.85-9.65-14.85-6.27,0-11.86,4.73-11.86,15.04v23.73h-8.68v-45.72Z"/>
        <path class="cls-3" d="M714.01,92.71c13.6,0,24.3,10.71,24.3,24.02s-10.7,24.01-24.3,24.01-24.3-10.71-24.3-24.01,10.71-24.02,24.3-24.02M714.01,132.64c9.26,0,15.04-6.65,15.04-15.91s-5.78-15.92-15.04-15.92-15.05,6.65-15.05,15.92,5.79,15.91,15.05,15.91"/>
        <polygon class="cls-3" points="747.01 66.67 755.69 66.67 755.69 113.73 775.37 93.96 787.42 93.96 766.11 114.7 789.25 139.58 776.91 139.58 755.69 115.85 755.69 139.58 747.01 139.58 747.01 66.67"/>
        <path class="cls-3" d="M797.42,93.86h8.68v7.05h.19c2.22-4.82,8.01-8.2,13.69-8.2,1.35,0,2.7.19,3.86.58l-.39,9.36c-1.44-.38-2.9-.67-4.25-.67-8.48,0-13.11,4.63-13.11,14.66v22.96h-8.68v-45.72Z"/>
        <path class="cls-3" d="M831.24,99.46c4.82-4.53,11.77-6.75,18.13-6.75,13.5,0,19.09,7.33,19.09,15.24v23.34c0,3.19.1,5.88.38,8.29h-7.71c-.19-2.32-.29-4.63-.29-6.94h-.19c-3.86,5.88-9.07,8.1-16.02,8.1-8.48,0-15.82-4.82-15.82-13.69,0-11.77,11.28-15.82,25.17-15.82h6.37v-1.93c0-4.73-3.47-9.65-10.9-9.65-6.65,0-9.83,2.79-13.02,5.21l-5.21-5.4ZM855.74,117.59c-8.2,0-18.23,1.44-18.23,8.78,0,5.2,3.86,7.42,9.83,7.42,9.65,0,13.02-7.13,13.02-13.31v-2.89h-4.62Z"/>
        <path class="cls-3" d="M905.67,101.39h-12.44v20.74c0,5.11,0,10.51,6.56,10.51,2.02,0,4.43-.29,6.18-1.35v7.91c-2.03,1.16-6.08,1.55-7.81,1.55-13.41,0-13.6-8.19-13.6-15.53v-23.82h-10.02v-7.52h10.02v-12.82h8.68v12.82h12.44v7.52Z"/>
        <path class="cls-3" d="M921.71,119.9c0,8.01,7.43,13.31,15.43,13.31,5.3,0,9.17-2.7,12.54-6.84l6.56,5.01c-4.82,6.27-11.48,9.36-20.26,9.36-14.47,0-23.53-10.42-23.53-24.01s9.94-24.02,23.64-24.02c16.1,0,22.28,12.35,22.28,24.11v3.09h-36.65ZM949.1,112.96c-.19-7.62-4.43-13.31-13.21-13.31s-14.18,7.23-14.18,13.31h27.39Z"/>
        <path class="cls-3" d="M968.5,93.86h8.68v7.05h.2c2.21-4.82,8-8.2,13.69-8.2,1.35,0,2.7.19,3.86.58l-.39,9.36c-1.45-.38-2.9-.67-4.25-.67-8.48,0-13.12,4.63-13.12,14.66v22.96h-8.68v-45.72Z"/>
        <path class="cls-3" d="M1003.43,93.86h8.68v7.05h.19c2.22-4.82,8.01-8.2,15.04-8.2,8.88,0,16.59,5.31,16.59,17.46v29.42h-8.68v-27.01c0-8.58-4.92-11.76-10.42-11.76-7.23,0-12.74,4.63-12.74,15.24v23.54h-8.68v-45.72Z"/>
        <path class="cls-3" d="M1054.39,99.46c4.82-4.53,11.77-6.75,18.13-6.75,13.5,0,19.09,7.33,19.09,15.24v23.34c0,3.19.09,5.88.38,8.29h-7.71c-.19-2.32-.29-4.63-.29-6.94h-.2c-3.85,5.88-9.06,8.1-16.01,8.1-8.48,0-15.82-4.82-15.82-13.69,0-11.77,11.28-15.82,25.17-15.82h6.37v-1.93c0-4.73-3.47-9.65-10.9-9.65-6.66,0-9.83,2.79-13.02,5.21l-5.21-5.4ZM1078.89,117.59c-8.2,0-18.23,1.44-18.23,8.78,0,5.2,3.86,7.42,9.83,7.42,9.65,0,13.02-7.13,13.02-13.31v-2.89h-4.63Z"/>
      </g>
      <g class="cls-6">
        <path class="cls-3" d="M101.62,0c-2.6,12.46-2.81,37.23-5.36,50.54,16.89-7.78,27.23-14.12,44.55-20.51C130.16,15.73,119.95,2.71,101.62,0"/>
        <path class="cls-3" d="M68.13,164.87c-10.72-2.57-15.77-7.71-21.05-13.06-1.37-1.39,4.46-6.41,6.62-5.31,7.47,3.82,14.8,8.24,18.49,8.7,47.92,5.9,62.02-13.3,66.55-24.38-22.91-29.51-44.43-21.16-44.43-21.16-.95,7.98-3.23,15.19-3.23,23.48.06.84-23.61,3.61-24.32,2.63-4.4-4.09-9.53-9.7-13.5-14.11-12.08,10.48-25.28,16.22-39.2,24.58,3.07,13.21,17.97,40.92,26.81,46.16,50.82,30.14,103.01,23.26,101.89-47.63-13.91,27.29-59.89,23.61-74.64,20.11"/>
        <path class="cls-3" d="M160.81,68.32c-6.65,1.79-16.41-11.95-11.1-17.94,7.02-7.93,25.73,14.02,11.1,17.94M176.66,30.76c-3.13-2.35-61.55,24.46-80.85,29.91-1.8,12.72-2.7,26.16-2.98,38.75,16.63-3.97,33.46,2.38,50.38,18.96,2.81-7.35,2.81-22.05,2.48-30.41-.1-2.84,6.34-4.03,6.86-3.36,7.49,9.52,2.13,34.19-1.42,46.52,1.19,18.09,1.39,27.61-2.22,43.86,89.2-14.03,45.94-130.58,27.75-144.23"/>
        <path class="cls-3" d="M49.11,112.09c-4.49-6.79-6.74-16.51-7.77-25.1-7.83-4.18-19.8-17.15-27.6-12.01C-3.76,86.49.05,96.35,1.05,97.96c9.13,14.72,13.54,21.02,21.49,29.06,8.26-3.57,17.47-9.68,26.56-14.93"/>
      </g>
      <g class="cls-5">
        <path class="cls-3" d="M67.48,104.91c-9.44-4.05-10.02-24.66-1.9-22.05,12.36,3.98,15.25,27.79,1.9,22.05M53,79.74c-10.5,14.89,18.27,46.6,18.27,46.6l10.78-.99c-.86-23.6,4.5-43.51-.15-47.85-4.16-3.81-20.13-10.2-28.89,2.23"/>
        <path class="cls-3" d="M84.17,71.79c-.41-.73,4.2-36.95,4.43-53.07-23.17-5.39-65.79,21.25-70.06,33.06,9.82,8.39,19.19,15.41,28.81,23.62,7.01-19.81,32.28-12.19,36.82-3.62"/>
      </g>
    </g>
  </g>
</svg>