<?xml version="1.0" encoding="UTF-8"?>
<svg id="Lager_1" data-name="Lager 1" xmlns="http://www.w3.org/2000/svg" xmlns:xlink="http://www.w3.org/1999/xlink" viewBox="0 0 603.98 510.11">
  <defs>
    <style>
      .cls-1 {
        clip-path: url(#clippath);
      }

      .cls-2 {
        fill: none;
      }

      .cls-2, .cls-3 {
        stroke-width: 0px;
      }

      .cls-4 {
        clip-path: url(#clippath-1);
      }

      .cls-3 {
        fill: #ed1b34;
      }
    </style>
    <clipPath id="clippath">
      <rect class="cls-2" width="603.98" height="510.11"/>
    </clipPath>
    <clipPath id="clippath-1">
      <rect class="cls-2" width="603.98" height="510.11"/>
    </clipPath>
  </defs>
  <g id="S_logga_-_Stående_Positiv" data-name="S logga - Stående Positiv">
    <g class="cls-1">
      <g class="cls-4">
        <path class="cls-3" d="M5.42,498.72c2.33,3.57,6.38,5.21,10.29,5.21,4.32,0,9.68-2.74,9.68-8.1,0-11.18-23.95-4.25-23.95-23.19,0-5.69,4.8-13.59,16.47-13.59,5.28,0,10.36,1.1,14,5.56l-5.35,4.87c-1.65-2.54-4.87-4.25-8.65-4.25-7.27,0-9.47,4.39-9.47,7.41,0,12.28,23.95,4.94,23.95,22.44,0,9.4-7.55,15.03-16.88,15.03-6.24,0-12.21-2.13-15.51-6.72l5.42-4.67Z"/>
        <path class="cls-3" d="M54.62,475.53c9.68,0,17.29,7.62,17.29,17.09s-7.62,17.08-17.29,17.08-17.29-7.62-17.29-17.08,7.62-17.09,17.29-17.09M54.62,503.93c6.59,0,10.71-4.73,10.71-11.32s-4.12-11.32-10.71-11.32-10.7,4.74-10.7,11.32,4.12,11.32,10.7,11.32"/>
        <path class="cls-3" d="M101.67,485c-2.26-2.4-4.67-3.64-8.1-3.64-6.72,0-10.15,5.42-10.15,11.53s4.12,11.05,10.5,11.05c3.43,0,5.83-1.23,7.89-3.63l4.39,4.39c-3.22,3.57-7.62,5.01-12.35,5.01-10.02,0-17.02-6.93-17.02-16.95s6.86-17.16,17.02-17.16c4.73,0,9.26,1.65,12.49,5.15l-4.67,4.26Z"/>
        <path class="cls-3" d="M117.85,460.16c2.47,0,4.53,2.06,4.53,4.53s-2.06,4.53-4.53,4.53-4.53-2.06-4.53-4.53,2.06-4.53,4.53-4.53M114.77,476.35h6.18v32.53h-6.18v-32.53Z"/>
        <path class="cls-3" d="M131.26,480.33c3.43-3.22,8.37-4.8,12.9-4.8,9.61,0,13.59,5.21,13.59,10.84v16.61c0,2.26.07,4.19.27,5.9h-5.49c-.14-1.65-.21-3.29-.21-4.94h-.14c-2.74,4.19-6.45,5.76-11.39,5.76-6.04,0-11.25-3.43-11.25-9.74,0-8.37,8.03-11.25,17.91-11.25h4.53v-1.37c0-3.36-2.47-6.86-7.75-6.86-4.73,0-7,1.99-9.26,3.7l-3.71-3.84ZM148.69,493.23c-5.83,0-12.97,1.03-12.97,6.24,0,3.7,2.75,5.28,7,5.28,6.86,0,9.26-5.07,9.26-9.47v-2.06h-3.29Z"/>
        <rect class="cls-3" x="167.94" y="457" width="6.18" height="51.88"/>
        <path class="cls-3" d="M215.32,508.88h-6.18v-4.67h-.14c-2.4,3.5-6.93,5.49-11.32,5.49-10.09,0-16.54-7.48-16.54-17.08s6.52-17.09,16.54-17.09c4.67,0,9.13,2.13,11.32,5.49h.14v-24.01h6.18v51.88ZM209.14,492.61c0-6.59-4.12-11.32-10.7-11.32s-10.7,4.74-10.7,11.32,4.11,11.32,10.7,11.32,10.7-4.73,10.7-11.32"/>
        <path class="cls-3" d="M229.46,494.88c0,5.7,5.28,9.47,10.98,9.47,3.78,0,6.52-1.92,8.92-4.87l4.67,3.57c-3.43,4.46-8.17,6.66-14.41,6.66-10.29,0-16.74-7.41-16.74-17.08s7.07-17.09,16.82-17.09c11.46,0,15.85,8.78,15.85,17.15v2.19h-26.08ZM248.95,489.94c-.14-5.43-3.15-9.47-9.4-9.47s-10.09,5.15-10.09,9.47h19.49Z"/>
        <path class="cls-3" d="M262.42,476.35h5.76v5.08h.14c.62-1.92,4.6-5.9,10.43-5.9,4.81,0,8.1,2.06,10.16,6.04,2.13-3.98,6.38-6.04,10.29-6.04,10.02,0,12.35,7.13,12.35,14.41v18.94h-6.18v-18.12c0-4.94-1.03-9.47-7-9.47s-8.3,4.05-8.3,9.82v17.77h-6.18v-17.02c0-6.18-.89-10.57-6.86-10.57-4.46,0-8.44,3.36-8.44,10.7v16.88h-6.17v-32.53Z"/>
        <path class="cls-3" d="M335.05,475.53c9.68,0,17.29,7.62,17.29,17.09s-7.61,17.08-17.29,17.08-17.29-7.62-17.29-17.08,7.62-17.09,17.29-17.09M335.05,503.93c6.59,0,10.7-4.73,10.7-11.32s-4.11-11.32-10.7-11.32-10.7,4.74-10.7,11.32,4.12,11.32,10.7,11.32"/>
        <polygon class="cls-3" points="358.53 457 364.71 457 364.71 490.48 378.71 476.42 387.28 476.42 372.12 491.17 388.59 508.88 379.8 508.88 364.71 491.99 364.71 508.88 358.53 508.88 358.53 457"/>
        <path class="cls-3" d="M394.39,476.35h6.17v5.01h.14c1.58-3.43,5.7-5.83,9.74-5.83.96,0,1.92.14,2.75.41l-.28,6.66c-1.03-.27-2.06-.48-3.02-.48-6.04,0-9.33,3.29-9.33,10.43v16.33h-6.17v-32.53Z"/>
        <path class="cls-3" d="M418.46,480.33c3.43-3.22,8.37-4.8,12.9-4.8,9.6,0,13.59,5.21,13.59,10.84v16.61c0,2.26.07,4.19.27,5.9h-5.48c-.14-1.65-.21-3.29-.21-4.94h-.14c-2.74,4.19-6.45,5.76-11.39,5.76-6.04,0-11.25-3.43-11.25-9.74,0-8.37,8.03-11.25,17.91-11.25h4.53v-1.37c0-3.36-2.47-6.86-7.75-6.86-4.73,0-7,1.99-9.26,3.7l-3.71-3.84ZM435.89,493.23c-5.84,0-12.97,1.03-12.97,6.24,0,3.7,2.74,5.28,7,5.28,6.86,0,9.27-5.07,9.27-9.47v-2.06h-3.29Z"/>
        <path class="cls-3" d="M471.41,481.7h-8.85v14.75c0,3.64,0,7.48,4.67,7.48,1.44,0,3.15-.2,4.39-.96v5.63c-1.44.82-4.32,1.1-5.56,1.1-9.54,0-9.68-5.83-9.68-11.05v-16.95h-7.13v-5.35h7.13v-9.12h6.17v9.12h8.85v5.35Z"/>
        <path class="cls-3" d="M482.82,494.88c0,5.7,5.28,9.47,10.98,9.47,3.77,0,6.52-1.92,8.92-4.87l4.67,3.57c-3.43,4.46-8.17,6.66-14.41,6.66-10.29,0-16.74-7.41-16.74-17.08s7.07-17.09,16.82-17.09c11.46,0,15.85,8.78,15.85,17.15v2.19h-26.08ZM502.31,489.94c-.14-5.43-3.15-9.47-9.4-9.47s-10.09,5.15-10.09,9.47h19.49Z"/>
        <path class="cls-3" d="M516.11,476.35h6.17v5.01h.14c1.57-3.43,5.69-5.83,9.74-5.83.96,0,1.92.14,2.75.41l-.28,6.66c-1.03-.27-2.06-.48-3.02-.48-6.04,0-9.33,3.29-9.33,10.43v16.33h-6.17v-32.53Z"/>
        <path class="cls-3" d="M540.97,476.35h6.17v5.01h.14c1.58-3.43,5.7-5.83,10.71-5.83,6.31,0,11.8,3.78,11.8,12.42v20.93h-6.18v-19.22c0-6.11-3.5-8.37-7.41-8.37-5.15,0-9.06,3.3-9.06,10.84v16.75h-6.17v-32.53Z"/>
        <path class="cls-3" d="M577.22,480.33c3.43-3.22,8.37-4.8,12.9-4.8,9.61,0,13.59,5.21,13.59,10.84v16.61c0,2.26.07,4.19.27,5.9h-5.49c-.13-1.65-.21-3.29-.21-4.94h-.14c-2.74,4.19-6.45,5.76-11.39,5.76-6.04,0-11.25-3.43-11.25-9.74,0-8.37,8.03-11.25,17.91-11.25h4.53v-1.37c0-3.36-2.47-6.86-7.75-6.86-4.74,0-7,1.99-9.26,3.7l-3.71-3.84ZM594.65,493.23c-5.83,0-12.97,1.03-12.97,6.24,0,3.7,2.74,5.28,7,5.28,6.86,0,9.27-5.07,9.27-9.47v-2.06h-3.29Z"/>
        <path class="cls-3" d="M290.98,0c-5.04,24.15-5.45,72.17-10.38,97.96,32.74-15.07,52.78-27.36,86.36-39.76-20.65-27.71-40.44-52.96-75.98-58.2"/>
        <path class="cls-3" d="M226.06,319.57c-20.78-4.98-30.56-14.95-40.81-25.31-2.66-2.7,8.65-12.43,12.83-10.29,14.49,7.41,28.69,15.98,35.85,16.87,92.89,11.44,120.21-25.78,128.99-47.25-44.4-57.2-86.12-41.03-86.12-41.03-1.84,15.47-6.26,29.46-6.27,45.51.11,1.63-45.77,7.01-47.13,5.09-8.53-7.93-18.48-18.81-26.16-27.34-23.41,20.32-49,31.44-75.97,47.64,5.95,25.6,34.83,79.31,51.97,89.47,98.51,58.43,199.66,45.08,197.49-92.32-26.96,52.9-116.09,45.77-144.67,38.98"/>
        <path class="cls-3" d="M405.72,132.42c-12.89,3.47-31.81-23.16-21.52-34.77,13.62-15.36,49.88,27.18,21.52,34.77M436.43,59.62c-6.06-4.56-119.32,47.42-156.71,57.98-3.49,24.66-5.23,50.7-5.77,75.11,32.24-7.7,64.85,4.61,97.66,36.74,5.45-14.25,5.45-42.74,4.8-58.94-.19-5.51,12.29-7.82,13.3-6.51,14.51,18.46,4.13,66.28-2.75,90.17,2.31,35.07,2.7,53.51-4.31,85.01,172.89-27.2,89.05-253.1,53.79-279.57"/>
        <path class="cls-3" d="M189.19,217.26c-8.7-13.15-13.07-32-15.05-48.65-15.17-8.11-38.37-33.24-53.5-23.28-33.9,22.31-26.53,41.42-24.59,44.54,17.69,28.53,26.24,40.75,41.66,56.33,16-6.92,33.85-18.76,51.49-28.94"/>
        <path class="cls-3" d="M224.81,203.36c-18.3-7.84-19.41-47.8-3.68-42.74,23.96,7.71,29.55,53.86,3.68,42.74M196.74,154.56c-20.34,28.87,35.41,90.33,35.41,90.33l20.89-1.92c-1.67-45.75,8.73-84.33-.3-92.74-8.06-7.38-39.01-19.78-56,4.33"/>
        <path class="cls-3" d="M257.16,139.14c-.8-1.41,8.14-71.62,8.58-102.86-44.91-10.45-127.51,41.19-135.8,64.09,19.03,16.26,37.18,29.87,55.85,45.79,13.59-38.4,62.57-23.62,71.37-7.01"/>
      </g>
    </g>
  </g>
</svg>