<svg xmlns="http://www.w3.org/2000/svg" version="1.1" xmlns:xlink="http://www.w3.org/1999/xlink" xmlns:svgjs="http://svgjs.dev/svgjs" width="391.39" height="403"><svg id="SvgjsSvg1012" data-name="Lager 1" xmlns="http://www.w3.org/2000/svg" xmlns:xlink="http://www.w3.org/1999/xlink" viewBox="0 0 391.39 403">
  <defs>
    <style>
      .cls-1 {
        clip-path: url(#clippath);
      }

      .cls-2 {
        fill: none;
      }

      .cls-2, .cls-3 {
        stroke-width: 0px;
      }

      .cls-4 {
        clip-path: url(#clippath-1);
      }

      .cls-3 {
        fill: #ed1b34;
      }
    </style>
    <clipPath id="SvgjsClipPath1011">
      <rect class="cls-2" width="391.39" height="403"></rect>
    </clipPath>
    <clipPath id="SvgjsClipPath1010">
      <rect class="cls-2" y="0" width="391.39" height="403"></rect>
    </clipPath>
  </defs>
  <g id="SvgjsG1009" data-name="S logga röd – utan text">
    <g class="cls-1">
      <g class="cls-4">
        <path class="cls-3" d="M195.67,0c-5.01,23.99-5.41,71.69-10.31,97.31,32.52-14.97,52.43-27.18,85.79-39.49C250.64,30.29,230.97,5.21,195.67,0"></path>
        <path class="cls-3" d="M131.19,317.46c-20.65-4.94-30.36-14.85-40.54-25.15-2.64-2.68,8.59-12.34,12.75-10.22,14.39,7.36,28.5,15.87,35.62,16.75,92.27,11.36,119.42-25.61,128.14-46.94-44.11-56.82-85.56-40.76-85.56-40.76-1.83,15.37-6.22,29.26-6.23,45.21.1,1.62-45.46,6.96-46.82,5.06-8.47-7.88-18.36-18.68-25.99-27.16-23.25,20.18-48.68,31.24-75.47,47.32,5.91,25.43,34.6,78.79,51.62,88.88,97.86,58.04,198.35,44.78,196.19-91.72-26.78,52.55-115.33,45.47-143.71,38.72"></path>
        <path class="cls-3" d="M309.66,131.55c-12.8,3.44-31.6-23.01-21.38-34.54,13.53-15.26,49.55,27,21.38,34.54M340.17,59.23c-6.02-4.53-118.53,47.11-155.68,57.6-3.47,24.49-5.2,50.37-5.73,74.61,32.03-7.65,64.42,4.58,97.01,36.5,5.41-14.16,5.41-42.46,4.77-58.56-.19-5.47,12.21-7.77,13.21-6.46,14.42,18.34,4.1,65.84-2.73,89.58,2.29,34.83,2.68,53.16-4.29,84.46,171.76-27.02,88.47-251.43,53.43-277.73"></path>
        <path class="cls-3" d="M94.55,215.83c-8.64-13.06-12.98-31.79-14.96-48.33-15.07-8.05-38.12-33.02-53.15-23.13C-7.23,166.54.09,185.53,2.02,188.62c17.57,28.34,26.06,40.48,41.39,55.96,15.9-6.87,33.63-18.64,51.15-28.75"></path>
        <path class="cls-3" d="M129.94,202.02c-18.18-7.79-19.28-47.49-3.66-42.46,23.8,7.66,29.36,53.51,3.66,42.46M102.05,153.54c-20.21,28.68,35.17,89.74,35.17,89.74l20.75-1.9c-1.65-45.45,8.67-83.78-.3-92.13-8.01-7.34-38.76-19.65-55.63,4.3"></path>
        <path class="cls-3" d="M162.08,138.23c-.79-1.4,8.09-71.14,8.52-102.18-44.62-10.38-126.67,40.92-134.9,63.67,18.91,16.15,36.94,29.68,55.48,45.49,13.5-38.14,62.16-23.46,70.9-6.97"></path>
      </g>
    </g>
  </g>
</svg><style>@media (prefers-color-scheme: light) { :root { filter: none; } }
@media (prefers-color-scheme: dark) { :root { filter: none; } }
</style></svg>